<svg width="287" height="241" viewBox="0 0 287 241" fill="none" xmlns="http://www.w3.org/2000/svg">
<g style="mix-blend-mode:darken">
<path fill-rule="evenodd" clip-rule="evenodd" d="M194.676 0C224.594 0 244 16.7813 244 42.6524V136.348C244 162.219 224.594 179 194.676 179H86.3243C56.4063 179 37 162.219 37 136.348V42.6524C37 16.7813 56.4063 0 86.3243 0H194.676Z" fill="url(#paint0_linear)"/>
<path fill-rule="evenodd" clip-rule="evenodd" d="M194.676 0C224.594 0 244 16.7813 244 42.6524V136.348C244 162.219 224.594 179 194.676 179H86.3243C56.4063 179 37 162.219 37 136.348V42.6524C37 16.7813 56.4063 0 86.3243 0H194.676Z" fill="url(#paint1_linear)"/>
<mask id="mask0" style="mask-type:alpha" maskUnits="userSpaceOnUse" x="37" y="0" width="207" height="179">
<path fill-rule="evenodd" clip-rule="evenodd" d="M194.676 0C224.594 0 244 16.7813 244 42.6524V136.348C244 162.219 224.594 179 194.676 179H86.3243C56.4063 179 37 162.219 37 136.348V42.6524C37 16.7813 56.4063 0 86.3243 0H194.676Z" fill="white"/>
</mask>
<g mask="url(#mask0)">
<g filter="url(#filter0_i)">
<path fill-rule="evenodd" clip-rule="evenodd" d="M140.277 40.5645C132.471 40.5541 123.781 35.7833 123.781 35.7833C123.781 35.7833 116.591 32.0115 111.658 30.9688C106.724 29.9261 108.698 33.2451 108.698 33.2451C108.698 33.2451 114.07 44.2416 108.26 38.7016C102.448 33.1615 95.3223 27.9347 95.3223 27.9347C95.3223 27.9347 85.7847 20.9194 81.8379 20.8836C77.8911 20.8478 80.3027 23.6701 80.3027 23.6701C80.3027 23.6701 88.6362 32.9602 77.8101 26.3446C66.984 19.7291 58.4676 20.9776 58.4676 20.9776C42.8788 23.2241 34.7955 38.7016 34.7955 38.7016L33.55 113.252C33.55 113.252 49.7012 135.847 77.8101 135.513C105.475 135.183 139.217 108.295 140.277 107.445C141.337 108.295 175.079 135.183 202.744 135.513C230.852 135.847 247.003 113.252 247.003 113.252L245.758 38.7016C245.758 38.7016 237.674 23.2241 222.086 20.9776C222.086 20.9776 213.569 19.7291 202.744 26.3446C191.918 32.9602 200.251 23.6701 200.251 23.6701C200.251 23.6701 202.662 20.8478 198.716 20.8836C194.769 20.9194 185.231 27.9347 185.231 27.9347C185.231 27.9347 178.106 33.1615 172.294 38.7016C166.484 44.2416 171.856 33.2451 171.856 33.2451C171.856 33.2451 173.829 29.9261 168.896 30.9688C163.962 32.0115 156.773 35.7833 156.773 35.7833C156.773 35.7833 148.083 40.5541 140.277 40.5645Z" fill="url(#paint2_linear)"/>
</g>
<g filter="url(#filter1_i)">
<path fill-rule="evenodd" clip-rule="evenodd" d="M140.343 162.592C149.239 162.592 160.315 145.335 160.315 132.154C160.315 118.973 167.604 114.858 140.343 114.858C113.081 114.858 120.813 118.973 120.813 132.154C120.813 145.335 131.446 162.592 140.343 162.592Z" fill="#139500"/>
</g>
<path fill-rule="evenodd" clip-rule="evenodd" d="M140.356 147.675C148.511 147.675 158.664 135.811 158.664 126.749C158.664 117.687 165.345 114.858 140.356 114.858C115.366 114.858 122.453 117.687 122.453 126.749C122.453 135.811 132.2 147.675 140.356 147.675Z" fill="#F49000"/>
<path fill-rule="evenodd" clip-rule="evenodd" d="M117.199 113.798C123.266 99.4937 139.947 99.9385 140.493 99.957C140.493 99.947 157.632 99.2443 163.801 113.787C169.893 128.148 141.226 138.327 140.507 138.58C140.507 138.595 111.03 128.341 117.199 113.798Z" fill="#FFC200"/>
<path fill-rule="evenodd" clip-rule="evenodd" d="M140.5 111.875C145.263 111.875 149.125 110.205 149.125 108.146C149.125 106.086 145.263 104.417 140.5 104.417C135.737 104.417 131.875 106.086 131.875 108.146C131.875 110.205 135.737 111.875 140.5 111.875Z" fill="#FFF4BA"/>
<g filter="url(#filter2_d)">
<path fill-rule="evenodd" clip-rule="evenodd" d="M81.85 114.858C98.9984 114.858 112.9 100.5 112.9 82.7875C112.9 65.0753 98.9984 50.7167 81.85 50.7167C64.7016 50.7167 50.8 65.0753 50.8 82.7875C50.8 100.5 64.7016 114.858 81.85 114.858Z" fill="white"/>
<g filter="url(#filter3_i)">
<path fill-rule="evenodd" clip-rule="evenodd" d="M81.85 101.433C91.3768 101.433 99.1 93.4192 99.1 83.5333C99.1 73.6475 91.3768 65.6333 81.85 65.6333C72.3232 65.6333 64.6 73.6475 64.6 83.5333C64.6 93.4192 72.3232 101.433 81.85 101.433Z" fill="#3E3E3E"/>
</g>
<path fill-rule="evenodd" clip-rule="evenodd" d="M70.6375 79.0583C74.9246 79.0583 78.4 76.0531 78.4 72.3458C78.4 68.6386 74.9246 65.6333 70.6375 65.6333C66.3504 65.6333 62.875 68.6386 62.875 72.3458C62.875 76.0531 66.3504 79.0583 70.6375 79.0583Z" fill="white"/>
</g>
<g filter="url(#filter4_d)">
<path fill-rule="evenodd" clip-rule="evenodd" d="M199.15 114.858C216.298 114.858 230.2 100.5 230.2 82.7875C230.2 65.0753 216.298 50.7167 199.15 50.7167C182.002 50.7167 168.1 65.0753 168.1 82.7875C168.1 100.5 182.002 114.858 199.15 114.858Z" fill="white"/>
<g filter="url(#filter5_i)">
<path fill-rule="evenodd" clip-rule="evenodd" d="M199.15 101.433C208.677 101.433 216.4 93.4192 216.4 83.5333C216.4 73.6475 208.677 65.6333 199.15 65.6333C189.623 65.6333 181.9 73.6475 181.9 83.5333C181.9 93.4192 189.623 101.433 199.15 101.433Z" fill="#3E3E3E"/>
</g>
<path fill-rule="evenodd" clip-rule="evenodd" d="M187.938 79.0583C192.225 79.0583 195.7 76.0531 195.7 72.3458C195.7 68.6386 192.225 65.6333 187.938 65.6333C183.65 65.6333 180.175 68.6386 180.175 72.3458C180.175 76.0531 183.65 79.0583 187.938 79.0583Z" fill="white"/>
</g>
</g>
</g>
<g style="mix-blend-mode:darken">
<path d="M39.1094 214.195C39.1094 215.742 38.9062 217.234 38.5 218.672C38.1094 220.094 37.5469 221.43 36.8125 222.68C36.0781 223.914 35.2031 225.047 34.1875 226.078C33.1719 227.094 32.0391 227.969 30.7891 228.703C29.5391 229.438 28.1953 230.008 26.7578 230.414C25.3359 230.805 23.8516 231 22.3047 231H12.1797V197.391H22.3047C23.8516 197.391 25.3359 197.594 26.7578 198C28.1953 198.391 29.5391 198.953 30.7891 199.688C32.0391 200.422 33.1719 201.305 34.1875 202.336C35.2031 203.352 36.0781 204.484 36.8125 205.734C37.5469 206.969 38.1094 208.305 38.5 209.742C38.9062 211.164 39.1094 212.648 39.1094 214.195ZM32.3828 214.195C32.3828 212.805 32.1172 211.5 31.5859 210.281C31.0703 209.062 30.3516 208 29.4297 207.094C28.5234 206.172 27.4531 205.445 26.2188 204.914C25 204.383 23.6953 204.117 22.3047 204.117H18.9531V224.273H22.3047C23.6953 224.273 25 224.016 26.2188 223.5C27.4531 222.969 28.5234 222.25 29.4297 221.344C30.3516 220.422 31.0703 219.352 31.5859 218.133C32.1172 216.898 32.3828 215.586 32.3828 214.195ZM50.4531 199.078C50.4531 199.672 50.3359 200.227 50.1016 200.742C49.8828 201.258 49.5781 201.711 49.1875 202.102C48.7969 202.477 48.3359 202.781 47.8047 203.016C47.2891 203.234 46.7344 203.344 46.1406 203.344C45.5469 203.344 44.9844 203.234 44.4531 203.016C43.9375 202.781 43.4844 202.477 43.0938 202.102C42.7188 201.711 42.4141 201.258 42.1797 200.742C41.9609 200.227 41.8516 199.672 41.8516 199.078C41.8516 198.5 41.9609 197.953 42.1797 197.438C42.4141 196.906 42.7188 196.453 43.0938 196.078C43.4844 195.688 43.9375 195.383 44.4531 195.164C44.9844 194.93 45.5469 194.812 46.1406 194.812C46.7344 194.812 47.2891 194.93 47.8047 195.164C48.3359 195.383 48.7969 195.688 49.1875 196.078C49.5781 196.453 49.8828 196.906 50.1016 197.438C50.3359 197.953 50.4531 198.5 50.4531 199.078ZM49.3516 231H42.9062V205.898H49.3516V231ZM61.375 231L51.8125 205.898H59.1016L64.5859 221.555L70.0469 205.898H77.3594L67.7969 231H61.375ZM89.0312 224.859C89.2812 224.938 89.5312 224.992 89.7812 225.023C90.0312 225.039 90.2812 225.047 90.5312 225.047C91.1562 225.047 91.7578 224.961 92.3359 224.789C92.9141 224.617 93.4531 224.375 93.9531 224.062C94.4688 223.734 94.9219 223.344 95.3125 222.891C95.7188 222.422 96.0469 221.906 96.2969 221.344L100.984 226.055C100.391 226.898 99.7031 227.656 98.9219 228.328C98.1562 229 97.3203 229.57 96.4141 230.039C95.5234 230.508 94.5781 230.859 93.5781 231.094C92.5938 231.344 91.5781 231.469 90.5312 231.469C88.7656 231.469 87.1016 231.141 85.5391 230.484C83.9922 229.828 82.6328 228.914 81.4609 227.742C80.3047 226.57 79.3906 225.18 78.7188 223.57C78.0469 221.945 77.7109 220.164 77.7109 218.227C77.7109 216.242 78.0469 214.43 78.7188 212.789C79.3906 211.148 80.3047 209.75 81.4609 208.594C82.6328 207.438 83.9922 206.539 85.5391 205.898C87.1016 205.258 88.7656 204.938 90.5312 204.938C91.5781 204.938 92.6016 205.062 93.6016 205.312C94.6016 205.562 95.5469 205.922 96.4375 206.391C97.3438 206.859 98.1875 207.438 98.9688 208.125C99.75 208.797 100.438 209.555 101.031 210.398L89.0312 224.859ZM92.3125 211.664C92.0156 211.555 91.7188 211.484 91.4219 211.453C91.1406 211.422 90.8438 211.406 90.5312 211.406C89.6562 211.406 88.8281 211.57 88.0469 211.898C87.2812 212.211 86.6094 212.664 86.0312 213.258C85.4688 213.852 85.0234 214.57 84.6953 215.414C84.3672 216.242 84.2031 217.18 84.2031 218.227C84.2031 218.461 84.2109 218.727 84.2266 219.023C84.2578 219.32 84.2969 219.625 84.3438 219.938C84.4062 220.234 84.4766 220.523 84.5547 220.805C84.6328 221.086 84.7344 221.336 84.8594 221.555L92.3125 211.664ZM110.664 231H104.266V205.898H105.812L107.922 208.875C108.953 207.938 110.125 207.219 111.438 206.719C112.75 206.203 114.109 205.945 115.516 205.945H121.164V212.32H115.516C114.844 212.32 114.211 212.445 113.617 212.695C113.023 212.945 112.508 213.289 112.07 213.727C111.633 214.164 111.289 214.68 111.039 215.273C110.789 215.867 110.664 216.5 110.664 217.172V231ZM136.727 231C135.18 231 133.727 230.711 132.367 230.133C131.008 229.539 129.812 228.734 128.781 227.719C127.766 226.688 126.961 225.492 126.367 224.133C125.789 222.773 125.5 221.32 125.5 219.773V212.32H122.383V205.945H125.5V195.914H131.875V205.945H141.578V212.32H131.875V219.773C131.875 220.445 132 221.078 132.25 221.672C132.5 222.25 132.844 222.758 133.281 223.195C133.719 223.633 134.234 223.984 134.828 224.25C135.422 224.5 136.055 224.625 136.727 224.625H141.578V231H136.727ZM151.234 240.562V234.117L154.797 234.164C155.422 234.164 156.023 234.062 156.602 233.859C157.18 233.656 157.711 233.375 158.195 233.016C158.695 232.656 159.133 232.227 159.508 231.727C159.883 231.242 160.188 230.711 160.422 230.133C159.719 230.43 159 230.727 158.266 231.023C157.547 231.32 156.82 231.469 156.086 231.469C154.539 231.469 153.086 231.195 151.727 230.648C150.367 230.102 149.172 229.328 148.141 228.328C147.125 227.312 146.32 226.086 145.727 224.648C145.148 223.195 144.859 221.57 144.859 219.773V205.898H151.234V219.773C151.234 220.664 151.359 221.445 151.609 222.117C151.875 222.773 152.227 223.328 152.664 223.781C153.102 224.219 153.609 224.547 154.188 224.766C154.781 224.984 155.414 225.094 156.086 225.094C156.742 225.094 157.359 224.945 157.938 224.648C158.531 224.336 159.047 223.93 159.484 223.43C159.922 222.93 160.266 222.367 160.516 221.742C160.766 221.102 160.891 220.445 160.891 219.773V205.898H167.336V227.836C167.32 229.602 166.977 231.258 166.305 232.805C165.633 234.352 164.711 235.703 163.539 236.859C162.383 238.016 161.031 238.93 159.484 239.602C157.938 240.273 156.281 240.609 154.516 240.609L151.234 240.562ZM196.445 231H172.914V197.391H179.641V224.273H196.445V231ZM204.578 240.562V234.117L208.141 234.164C208.766 234.164 209.367 234.062 209.945 233.859C210.523 233.656 211.055 233.375 211.539 233.016C212.039 232.656 212.477 232.227 212.852 231.727C213.227 231.242 213.531 230.711 213.766 230.133C213.062 230.43 212.344 230.727 211.609 231.023C210.891 231.32 210.164 231.469 209.43 231.469C207.883 231.469 206.43 231.195 205.07 230.648C203.711 230.102 202.516 229.328 201.484 228.328C200.469 227.312 199.664 226.086 199.07 224.648C198.492 223.195 198.203 221.57 198.203 219.773V205.898H204.578V219.773C204.578 220.664 204.703 221.445 204.953 222.117C205.219 222.773 205.57 223.328 206.008 223.781C206.445 224.219 206.953 224.547 207.531 224.766C208.125 224.984 208.758 225.094 209.43 225.094C210.086 225.094 210.703 224.945 211.281 224.648C211.875 224.336 212.391 223.93 212.828 223.43C213.266 222.93 213.609 222.367 213.859 221.742C214.109 221.102 214.234 220.445 214.234 219.773V205.898H220.68V227.836C220.664 229.602 220.32 231.258 219.648 232.805C218.977 234.352 218.055 235.703 216.883 236.859C215.727 238.016 214.375 238.93 212.828 239.602C211.281 240.273 209.625 240.609 207.859 240.609L204.578 240.562ZM249.836 218.227C249.836 220.102 249.5 221.852 248.828 223.477C248.156 225.086 247.242 226.484 246.086 227.672C244.93 228.844 243.57 229.773 242.008 230.461C240.461 231.133 238.797 231.469 237.016 231.469C235.25 231.469 233.586 231.133 232.023 230.461C230.477 229.773 229.117 228.844 227.945 227.672C226.789 226.484 225.875 225.086 225.203 223.477C224.531 221.852 224.195 220.102 224.195 218.227C224.195 216.32 224.531 214.555 225.203 212.93C225.875 211.305 226.789 209.906 227.945 208.734C229.117 207.547 230.477 206.617 232.023 205.945C233.586 205.273 235.25 204.938 237.016 204.938C238.797 204.938 240.461 205.258 242.008 205.898C243.57 206.523 244.93 207.422 246.086 208.594C247.242 209.75 248.156 211.148 248.828 212.789C249.5 214.414 249.836 216.227 249.836 218.227ZM243.391 218.227C243.391 217.195 243.219 216.266 242.875 215.438C242.547 214.594 242.094 213.875 241.516 213.281C240.938 212.672 240.258 212.211 239.477 211.898C238.711 211.57 237.891 211.406 237.016 211.406C236.141 211.406 235.312 211.57 234.531 211.898C233.766 212.211 233.094 212.672 232.516 213.281C231.953 213.875 231.508 214.594 231.18 215.438C230.852 216.266 230.688 217.195 230.688 218.227C230.688 219.195 230.852 220.094 231.18 220.922C231.508 221.75 231.953 222.469 232.516 223.078C233.094 223.688 233.766 224.172 234.531 224.531C235.312 224.875 236.141 225.047 237.016 225.047C237.891 225.047 238.711 224.883 239.477 224.555C240.258 224.227 240.938 223.766 241.516 223.172C242.094 222.578 242.547 221.859 242.875 221.016C243.219 220.172 243.391 219.242 243.391 218.227ZM259.773 231H253.375V205.898H254.922L257.031 208.336C258.062 207.398 259.227 206.68 260.523 206.18C261.836 205.664 263.203 205.406 264.625 205.406C266.156 205.406 267.602 205.703 268.961 206.297C270.32 206.875 271.508 207.68 272.523 208.711C273.539 209.727 274.336 210.922 274.914 212.297C275.508 213.656 275.805 215.109 275.805 216.656V231H269.406V216.656C269.406 216 269.281 215.383 269.031 214.805C268.781 214.211 268.438 213.695 268 213.258C267.562 212.82 267.055 212.477 266.477 212.227C265.898 211.977 265.281 211.852 264.625 211.852C263.953 211.852 263.32 211.977 262.727 212.227C262.133 212.477 261.617 212.82 261.18 213.258C260.742 213.695 260.398 214.211 260.148 214.805C259.898 215.383 259.773 216 259.773 216.656V231Z" fill="#139500"/>
</g>
<defs>
<filter id="filter0_i" x="33.55" y="20.8833" width="213.453" height="115.634" filterUnits="userSpaceOnUse" color-interpolation-filters="sRGB">
<feFlood flood-opacity="0" result="BackgroundImageFix"/>
<feBlend mode="normal" in="SourceGraphic" in2="BackgroundImageFix" result="shape"/>
<feColorMatrix in="SourceAlpha" type="matrix" values="0 0 0 0 0 0 0 0 0 0 0 0 0 0 0 0 0 0 127 0" result="hardAlpha"/>
<feOffset dy="1"/>
<feGaussianBlur stdDeviation="2"/>
<feComposite in2="hardAlpha" operator="arithmetic" k2="-1" k3="1"/>
<feColorMatrix type="matrix" values="0 0 0 0 0.643137 0 0 0 0 0.92549 0 0 0 0 0 0 0 0 1 0"/>
<feBlend mode="normal" in2="shape" result="effect1_innerShadow"/>
</filter>
<filter id="filter1_i" x="119.8" y="114.858" width="41.3999" height="47.7333" filterUnits="userSpaceOnUse" color-interpolation-filters="sRGB">
<feFlood flood-opacity="0" result="BackgroundImageFix"/>
<feBlend mode="normal" in="SourceGraphic" in2="BackgroundImageFix" result="shape"/>
<feColorMatrix in="SourceAlpha" type="matrix" values="0 0 0 0 0 0 0 0 0 0 0 0 0 0 0 0 0 0 127 0" result="hardAlpha"/>
<feOffset/>
<feGaussianBlur stdDeviation="1.5"/>
<feComposite in2="hardAlpha" operator="arithmetic" k2="-1" k3="1"/>
<feColorMatrix type="matrix" values="0 0 0 0 0 0 0 0 0 0 0 0 0 0 0 0 0 0 0.0948256 0"/>
<feBlend mode="normal" in2="shape" result="effect1_innerShadow"/>
</filter>
<filter id="filter2_d" x="46.8" y="47.7167" width="70.1" height="72.1417" filterUnits="userSpaceOnUse" color-interpolation-filters="sRGB">
<feFlood flood-opacity="0" result="BackgroundImageFix"/>
<feColorMatrix in="SourceAlpha" type="matrix" values="0 0 0 0 0 0 0 0 0 0 0 0 0 0 0 0 0 0 127 0" result="hardAlpha"/>
<feOffset dy="1"/>
<feGaussianBlur stdDeviation="2"/>
<feColorMatrix type="matrix" values="0 0 0 0 0.585892 0 0 0 0 0.888951 0 0 0 0 0.00308664 0 0 0 1 0"/>
<feBlend mode="normal" in2="BackgroundImageFix" result="effect1_dropShadow"/>
<feBlend mode="normal" in="SourceGraphic" in2="effect1_dropShadow" result="shape"/>
</filter>
<filter id="filter3_i" x="64.6" y="65.6333" width="34.5" height="35.8" filterUnits="userSpaceOnUse" color-interpolation-filters="sRGB">
<feFlood flood-opacity="0" result="BackgroundImageFix"/>
<feBlend mode="normal" in="SourceGraphic" in2="BackgroundImageFix" result="shape"/>
<feColorMatrix in="SourceAlpha" type="matrix" values="0 0 0 0 0 0 0 0 0 0 0 0 0 0 0 0 0 0 127 0" result="hardAlpha"/>
<feOffset/>
<feGaussianBlur stdDeviation="2"/>
<feComposite in2="hardAlpha" operator="arithmetic" k2="-1" k3="1"/>
<feColorMatrix type="matrix" values="0 0 0 0 0 0 0 0 0 0 0 0 0 0 0 0 0 0 0.5 0"/>
<feBlend mode="normal" in2="shape" result="effect1_innerShadow"/>
</filter>
<filter id="filter4_d" x="164.1" y="47.7167" width="70.1" height="72.1417" filterUnits="userSpaceOnUse" color-interpolation-filters="sRGB">
<feFlood flood-opacity="0" result="BackgroundImageFix"/>
<feColorMatrix in="SourceAlpha" type="matrix" values="0 0 0 0 0 0 0 0 0 0 0 0 0 0 0 0 0 0 127 0" result="hardAlpha"/>
<feOffset dy="1"/>
<feGaussianBlur stdDeviation="2"/>
<feColorMatrix type="matrix" values="0 0 0 0 0.585892 0 0 0 0 0.888951 0 0 0 0 0.00308664 0 0 0 1 0"/>
<feBlend mode="normal" in2="BackgroundImageFix" result="effect1_dropShadow"/>
<feBlend mode="normal" in="SourceGraphic" in2="effect1_dropShadow" result="shape"/>
</filter>
<filter id="filter5_i" x="181.9" y="65.6333" width="34.5" height="35.8" filterUnits="userSpaceOnUse" color-interpolation-filters="sRGB">
<feFlood flood-opacity="0" result="BackgroundImageFix"/>
<feBlend mode="normal" in="SourceGraphic" in2="BackgroundImageFix" result="shape"/>
<feColorMatrix in="SourceAlpha" type="matrix" values="0 0 0 0 0 0 0 0 0 0 0 0 0 0 0 0 0 0 127 0" result="hardAlpha"/>
<feOffset/>
<feGaussianBlur stdDeviation="2"/>
<feComposite in2="hardAlpha" operator="arithmetic" k2="-1" k3="1"/>
<feColorMatrix type="matrix" values="0 0 0 0 0 0 0 0 0 0 0 0 0 0 0 0 0 0 0.5 0"/>
<feBlend mode="normal" in2="shape" result="effect1_innerShadow"/>
</filter>
<linearGradient id="paint0_linear" x1="37" y1="0" x2="37" y2="179" gradientUnits="userSpaceOnUse">
<stop stop-color="#78DE00"/>
<stop offset="1" stop-color="#06A300"/>
</linearGradient>
<linearGradient id="paint1_linear" x1="49.2655" y1="25.4134" x2="50.7185" y2="179.844" gradientUnits="userSpaceOnUse">
<stop stop-color="#78DE00"/>
<stop offset="1" stop-color="#06A300"/>
</linearGradient>
<linearGradient id="paint2_linear" x1="33.55" y1="20.8833" x2="33.55" y2="135.517" gradientUnits="userSpaceOnUse">
<stop stop-color="#A4EC00"/>
<stop offset="1" stop-color="#6ACC00"/>
</linearGradient>
</defs>
</svg>
